<svg xmlns="http://www.w3.org/2000/svg" xmlns:xlink="http://www.w3.org/1999/xlink" width="24" height="24" viewBox="0 0 24 24">
    <defs>
        <path id="a" d="M.013 2.673C-.134 1.323 1.02-.014 2.46.019 8.307-.021 14.154.016 20 .004v19.195c-5.422.012-10.843-.024-16.265.015-.993-.066-1.592 1.176-.987 1.901.36.522 1.078.48 1.65.49 5.2-.016 10.402-.004 15.602-.007v2.4c-5.422-.012-10.846.02-16.268-.015-1.974.02-3.748-1.668-3.704-3.57C-.006 14.5.022 8.586.013 2.674zm6.246 2.13v2.399h9.993v-2.4H6.26z"/>
    </defs>
    <use fill="#1BA8FF" fill-rule="evenodd" transform="translate(2)" xlink:href="#a"/>
</svg>
