<svg width="37" height="45" viewBox="0 0 37 45" xmlns="http://www.w3.org/2000/svg" xmlns:xlink="http://www.w3.org/1999/xlink"><title>FE9CA6D3-28A8-4B6F-9CFC-1D6DA6643976</title><defs><path id="a" d="M0 41.163V.063h36.965v44.95H0v-3.85 3.85h16.203v-3.85H0z"/></defs><g fill="none" fill-rule="evenodd"><path d="M11.684 7.914c-.29-.555.066-1.275.648-1.443.02.658.018 1.318-.017 1.977-.252-.117-.53-.25-.63-.534M13.188 10.407c.46.132.93.454.948.987.13.63-.368 1.167-.93 1.337-.017-.774-.055-1.55-.018-2.324M22.668 16.005c2.27-.441 4.601-.517 6.9-.305 1.665.17 3.34.475 4.887 1.14.842.38 1.69.884 2.194 1.69.33.512.4 1.169.213 1.747-.444 1.08-1.494 1.72-2.513 2.157-1.782.724-3.698 1.024-5.603 1.16-2.597.133-5.242-.032-7.742-.796-1.378-.425-2.822-1.116-3.533-2.455-.09-.434-.148-.895-.001-1.323.236-.737.841-1.278 1.472-1.68 1.133-.703 2.433-1.07 3.726-1.335M4.746 20.958a20.557 20.557 0 0 1 5.606-.156c1.325.153 2.656.414 3.88.965.685.321 1.374.75 1.758 1.43.24.413.266.92.136 1.374-.664 1.417-2.286 1.907-3.669 2.282-2.548.603-5.22.625-7.8.198-1.214-.234-2.442-.556-3.493-1.24-.449-.29-.773-.729-1.095-1.148-.027-.37-.127-.75 0-1.113.208-.686.792-1.166 1.384-1.514 1.014-.576 2.156-.872 3.293-1.078" fill="#FBD635"/><path d="M17.472 24.519c-.23-.748-.028-1.562.47-2.152.662.764 1.58 1.218 2.503 1.572 2.013.716 4.154.97 6.277 1.025 2.61.016 5.275-.24 7.713-1.242.74-.296 1.442-.73 1.963-1.349.496.575.711 1.39.463 2.125-.514 1.219-1.764 1.848-2.926 2.29-1.317.532-2.734.734-4.132.922-2.984.274-6.047.147-8.925-.745-1.323-.454-2.762-1.104-3.406-2.446M.067 28.119c-.144-.642-.04-1.328.4-1.832.755.852 1.857 1.273 2.92 1.569 1.802.502 3.686.614 5.548.576 1.894-.11 3.823-.364 5.553-1.2a3.674 3.674 0 0 0 1.256-.942c.391.482.584 1.14.382 1.746-.629 1.256-2.008 1.844-3.28 2.199-2.966.759-6.113.773-9.097.101-1.391-.355-2.905-.904-3.682-2.217" fill="#FBD635"/><path d="M17.462 28.679c-.182-.747-.063-1.557.443-2.151 1.012 1.17 2.536 1.675 3.981 2.045 1.735.437 3.53.584 5.315.6 2.405-.04 4.858-.279 7.106-1.198.785-.347 1.576-.77 2.133-1.446.46.573.666 1.36.422 2.07-.632 1.307-2 2.013-3.306 2.452-2.693.852-5.555 1.015-8.356.83-2.194-.216-4.481-.558-6.383-1.763-.582-.337-.996-.882-1.355-1.44M13.23 31.226c.931-.317 1.875-.74 2.54-1.497.383.48.55 1.126.354 1.723-.628 1.374-2.184 1.854-3.511 2.243-2.49.617-5.104.655-7.635.287-1.29-.221-2.597-.54-3.726-1.235-.48-.297-.836-.746-1.185-1.183-.126-.637-.068-1.323.369-1.833 1.175 1.286 2.966 1.663 4.601 1.953 2.722.404 5.54.303 8.193-.458" fill="#FBD635"/><path d="M17.469 32.862a2.354 2.354 0 0 1 .469-2.175c1.328 1.425 3.312 1.89 5.142 2.256 3.358.55 6.847.462 10.136-.453 1.159-.38 2.346-.871 3.18-1.803.497.577.716 1.393.465 2.127-.503 1.185-1.706 1.822-2.834 2.271-2.631.946-5.464 1.162-8.238 1.039-1.81-.114-3.627-.373-5.341-.992-1.183-.433-2.37-1.107-2.98-2.27M.469 33.168c.853.949 2.111 1.377 3.311 1.67 1.8.444 3.667.532 5.511.453 1.616-.121 3.252-.336 4.755-.98.624-.275 1.238-.618 1.698-1.136.398.482.58 1.143.38 1.752-.557 1.192-1.85 1.746-3.023 2.117-3 .823-6.195.854-9.228.201-1.02-.258-2.058-.58-2.91-1.227-.357-.268-.62-.636-.904-.977-.014.254-.032.509-.034.763-.057-.432.096-.863-.009-1.292-.076-.496.165-.962.453-1.344" fill="#FBD635"/><path d="M17.651 34.478c.773 1.228 2.187 1.804 3.506 2.216 2.301.681 4.72.848 7.107.778 1.552-.095 3.108-.261 4.61-.694 1.438-.377 2.957-1.003 3.822-2.294.28.523.345 1.148.165 1.717-.588 1.36-2.048 1.959-3.334 2.441-2.682.852-5.537 1.008-8.327.827-1.765-.164-3.546-.443-5.19-1.135-1.025-.416-2.013-1.07-2.54-2.082-.146-.592-.127-1.235.181-1.774M.224 36.308c.711 1.122 2.047 1.582 3.253 1.934 2.416.623 4.95.681 7.415.373 1.306-.234 2.655-.462 3.815-1.15.505-.285.959-.671 1.28-1.16.215.439.29.949.136 1.42-.574 1.156-1.823 1.727-2.98 2.1-2.467.712-5.077.803-7.617.515-1.304-.184-2.616-.462-3.808-1.048-.665-.356-1.305-.84-1.638-1.54-.133-.483-.09-1 .144-1.444" fill="#FBD635"/><path d="M17.94 38.277c.666.733 1.556 1.213 2.472 1.546 2.172.793 4.5 1.027 6.796 1.047 2.016-.021 4.049-.22 5.99-.794 1.166-.375 2.357-.868 3.197-1.804.495.574.717 1.387.467 2.12-.604 1.241-1.885 1.95-3.129 2.388-1.989.661-4.088.924-6.177.958-2.42.015-4.882-.214-7.172-1.047-1.164-.423-2.295-1.105-2.922-2.22-.189-.767-.053-1.599.478-2.194M.066 41.325c-.125-.651-.07-1.366.403-1.87.802.87 1.94 1.29 3.047 1.599 2.312.578 4.728.66 7.088.394 1.812-.278 3.803-.617 5.137-2.006.403.491.584 1.159.383 1.777-.552 1.161-1.806 1.715-2.96 2.064-2.198.687-4.536.773-6.818.62-1.723-.173-3.495-.468-5.015-1.356-.52-.29-.895-.767-1.265-1.222" fill="#FBD635"/><path d="M12.276 2.167c-1.916.15-3.763 1.047-5.03 2.515-1.436 1.613-2.098 3.894-1.774 6.035.248 1.866 1.25 3.61 2.706 4.78 1.398 1.13 3.215 1.741 5.006 1.612 1.643-.02 3.204-.76 4.462-1.793.939-.799 1.61-1.874 2.084-3.008.63-1.648.636-3.523.053-5.187-.526-1.459-1.493-2.769-2.775-3.634-1.36-.983-3.07-1.422-4.732-1.32m-.698-.475c1.682-.246 3.452.028 4.948.853 2.174 1.152 3.773 3.377 4.127 5.84.219 1.184.074 2.409-.217 3.567-.621 2.013-2.024 3.78-3.873 4.77-2.63 1.483-6.115 1.225-8.503-.63-1.939-1.434-3.176-3.805-3.204-6.238-.084-1.628.445-3.24 1.277-4.62 1.193-1.914 3.26-3.164 5.445-3.542M34.349 22.434c1.019-.437 2.069-1.078 2.513-2.157.244.724.038 1.536-.464 2.096-.521.618-1.222 1.053-1.963 1.35-2.438 1-5.103 1.257-7.713 1.241-2.123-.056-4.264-.31-6.277-1.025-.922-.354-1.841-.809-2.504-1.572-.478-.538-.708-1.323-.47-2.024.71 1.34 2.155 2.03 3.533 2.455 2.5.764 5.144.93 7.742.796 1.905-.136 3.82-.436 5.603-1.16M12.457 26.853c1.383-.375 3.005-.865 3.669-2.282.19.596.024 1.255-.382 1.719-.343.405-.78.72-1.256.942-1.73.836-3.66 1.09-5.553 1.2-1.862.038-3.746-.074-5.547-.576-1.064-.296-2.166-.717-2.92-1.569-.383-.433-.58-1.057-.399-1.624.322.42.646.858 1.095 1.148 1.051.684 2.279 1.006 3.494 1.24 2.578.427 5.25.405 7.8-.198" fill="#F8A725"/><path d="M17.472 24.519c.644 1.342 2.083 1.992 3.406 2.446 2.878.892 5.941 1.02 8.925.745 1.398-.188 2.815-.39 4.132-.922 1.162-.442 2.412-1.071 2.926-2.29.244.696.04 1.477-.42 2.031-.558.676-1.349 1.1-2.134 1.446-2.248.92-4.701 1.158-7.106 1.198-1.784-.016-3.58-.163-5.315-.6-1.445-.37-2.969-.876-3.981-2.045-.462-.544-.665-1.32-.433-2.009M12.846 30.235c1.272-.355 2.651-.943 3.28-2.2.179.583.043 1.237-.356 1.694-.665.757-1.609 1.18-2.54 1.497-2.653.76-5.47.862-8.193.458-1.635-.29-3.426-.667-4.601-1.953-.367-.44-.54-1.052-.369-1.612.777 1.313 2.29 1.862 3.682 2.217 2.984.672 6.131.657 9.097-.101" fill="#F8A725"/><path d="M33.556 31.05c1.305-.438 2.674-1.144 3.306-2.45.246.72.034 1.531-.466 2.087-.834.932-2.022 1.423-3.18 1.803-3.289.915-6.778 1.003-10.136.453-1.83-.367-3.814-.831-5.142-2.256-.464-.542-.705-1.308-.476-2.009.36.558.773 1.103 1.355 1.44 1.902 1.205 4.189 1.547 6.383 1.763 2.8.185 5.663.022 8.356-.83M12.613 33.695c1.327-.389 2.883-.869 3.511-2.243.198.597.018 1.255-.38 1.723-.46.518-1.074.861-1.698 1.136-1.503.644-3.14.859-4.755.98-1.844.079-3.712-.01-5.511-.454-1.2-.293-2.458-.72-3.311-1.67-.38-.425-.58-1.041-.402-1.603.349.437.706.886 1.185 1.184 1.13.695 2.436 1.013 3.726 1.234 2.531.368 5.145.33 7.635-.287" fill="#F8A725"/><path d="M17.469 32.862c.609 1.163 1.796 1.837 2.979 2.27 1.714.619 3.531.878 5.341.992 2.774.123 5.607-.093 8.238-1.039 1.128-.449 2.33-1.086 2.834-2.27.184.55.11 1.163-.165 1.669-.865 1.29-2.384 1.917-3.823 2.295-1.5.432-3.058.598-4.61.693-2.387.07-4.805-.097-7.106-.778-1.319-.412-2.733-.988-3.506-2.216a2.026 2.026 0 0 1-.182-1.616M13.1 37.044c1.174-.372 2.467-.925 3.024-2.117.136.456.097.96-.138 1.378-.32.489-.774.875-1.28 1.16-1.159.688-2.508.916-3.814 1.15-2.465.308-5 .25-7.415-.373C2.271 37.89.935 37.43.224 36.308a2.68 2.68 0 0 1-.2-.504c.003-.254.02-.51.035-.763.284.34.547.709.905.977.85.647 1.889.969 2.91 1.227 3.032.653 6.228.622 9.227-.201" fill="#F8A725"/><path d="M33.527 38.642c1.286-.482 2.746-1.081 3.334-2.441.25.713.03 1.522-.466 2.07-.84.937-2.031 1.43-3.198 1.805-1.94.574-3.973.773-5.99.794-2.295-.02-4.623-.254-6.795-1.047-.916-.333-1.806-.813-2.472-1.546-.465-.546-.715-1.322-.47-2.025.527 1.011 1.515 1.666 2.54 2.082 1.644.692 3.425.971 5.19 1.135 2.79.18 5.645.025 8.327-.827M.08 37.751c.333.702.973 1.185 1.638 1.541 1.192.586 2.504.864 3.808 1.048 2.54.288 5.15.197 7.617-.514 1.157-.374 2.406-.945 2.98-2.1.197.592.027 1.258-.382 1.716-1.334 1.389-3.325 1.728-5.137 2.006-2.36.265-4.776.184-7.088-.395-1.108-.308-2.245-.728-3.047-1.598-.395-.46-.588-1.112-.389-1.704" fill="#F8A725"/><path d="M33.734 42.78c1.243-.438 2.524-1.147 3.128-2.387.271.78-.014 1.649-.58 2.213-.892.912-2.115 1.383-3.309 1.734-2.483.684-5.089.833-7.65.663-1.822-.145-3.657-.444-5.355-1.152-.83-.366-1.661-.842-2.198-1.603-.362-.506-.498-1.175-.308-1.778.627 1.116 1.758 1.798 2.922 2.22 2.29.834 4.752 1.063 7.171 1.048 2.09-.034 4.19-.297 6.179-.958" fill="#F8A725"/><g transform="translate(0 .056)"><mask id="b" fill="#fff"><use xlink:href="#a"/></mask><path d="M13.163 43.226c1.155-.349 2.409-.902 2.961-2.063.149.477.088 1.01-.187 1.43-.444.693-1.187 1.113-1.92 1.43-1.2.498-2.488.742-3.775.88-2.01.2-4.051.137-6.032-.271-1.192-.262-2.416-.62-3.38-1.408-.565-.454-1.001-1.212-.764-1.955.37.455.746.931 1.265 1.221 1.52.889 3.292 1.184 5.015 1.357 2.282.152 4.62.067 6.817-.62" fill="#F8A725" mask="url(#b)"/></g><path d="M20.436 11.952c-.621 2.013-2.025 3.78-3.873 4.77-2.63 1.483-6.115 1.225-8.503-.63-1.939-1.434-3.176-3.805-3.204-6.238-.084-1.628.445-3.24 1.277-4.62 1.193-1.914 3.26-3.164 5.445-3.542 1.682-.246 3.452.028 4.948.853 2.174 1.152 3.773 3.377 4.127 5.84.219 1.184.074 2.409-.217 3.567m.844-6.478a9.53 9.53 0 0 0-4.283-4.36 9.343 9.343 0 0 0-5.283-.932C8.237.548 5.104 3.06 3.942 6.388a9.665 9.665 0 0 0 .15 6.9A9.529 9.529 0 0 0 8.44 18.09a9.342 9.342 0 0 0 5.786.97 9.314 9.314 0 0 0 4.723-2.198 9.525 9.525 0 0 0 3.043-5.093c.478-2.1.227-4.36-.712-6.295" fill="#FBD635"/><path d="M19.783 7.121c-.526-1.459-1.493-2.769-2.775-3.634-1.36-.983-3.07-1.422-4.732-1.32-1.916.15-3.763 1.047-5.03 2.515-1.436 1.613-2.098 3.894-1.774 6.035.248 1.866 1.25 3.611 2.706 4.78 1.398 1.13 3.215 1.741 5.006 1.612 1.643-.02 3.204-.76 4.462-1.793.939-.799 1.61-1.874 2.084-3.008.63-1.648.636-3.523.053-5.187" fill="#FBD635"/><path fill="#F8A725" d="M12.946 14.043l-4.5-4.547 4.5-4.547 4.5 4.547z"/></g></svg>