<?xml version="1.0" encoding="UTF-8"?>
<svg width="22px" height="15px" viewBox="0 0 22 15" version="1.1" xmlns="http://www.w3.org/2000/svg" xmlns:xlink="http://www.w3.org/1999/xlink">
    <!-- Generator: Sketch 55.2 (78181) - https://sketchapp.com -->
    <title>Group</title>
    <desc>Created with Sketch.</desc>
    <g id="Page-1" stroke="none" stroke-width="1" fill="none" fill-rule="evenodd">
        <g id="Artboard" fill="#1BA8FF" fill-rule="nonzero">
            <g id="Group">
                <path d="M2.28373659,7.10508941 L0.877148045,7.10508941 C0.257455026,7.10508941 0,6.65180174 0,6.21125379 C0,5.75776064 0.322535072,5.31721269 0.877148045,5.31721269 L5.62594487,5.31721269 C6.18055784,5.31721269 6.50288826,5.75776064 6.50288826,6.21125379 C6.50288826,6.65180174 6.24502393,7.10508941 5.62594487,7.10508941 L4.21976563,7.10508941 L4.21976563,13.6097469 C4.21976563,14.2574182 3.80697804,14.6198839 3.2513418,14.6198839 C2.69652417,14.6198839 2.28373659,14.2574182 2.28373659,13.6097469 L2.28373659,7.10508941 Z" id="Fill-1"></path>
                <path d="M6.93024723,6.24986338 C6.93024723,5.60239763 7.34303482,5.23952091 7.89785245,5.23952091 C8.45246542,5.23952091 8.86545766,5.60239763 8.86545766,6.24986338 L8.86545766,13.6097264 C8.86545766,14.2573976 8.45246542,14.6198634 7.89785245,14.6198634 C7.34303482,14.6198634 6.93024723,14.2573976 6.93024723,13.6097264 L6.93024723,6.24986338 Z" id="Fill-3"></path>
                <path d="M10.0270341,6.19797982 C10.0270341,5.66722639 10.4138306,5.23941817 10.9952533,5.23941817 C11.5498663,5.23941817 11.9620399,5.60229489 11.9620399,6.19797982 L11.9620399,8.99702091 L15.137455,5.60229489 C15.2792804,5.44654146 15.5242515,5.23941817 15.8852616,5.23941817 C16.3756131,5.23941817 16.8403829,5.61544557 16.8403829,6.17208941 C16.8403829,6.50887023 16.6338867,6.7811305 16.2086152,7.2091442 L13.7693414,9.61839078 L16.750949,12.7412675 C17.0599769,13.0523634 17.2920548,13.3371579 17.2920548,13.7257195 C17.2920548,14.3347606 16.8141871,14.6197606 16.2853606,14.6197606 C15.911662,14.6197606 15.6662815,14.4003086 15.3050668,14.0117469 L11.9620399,10.3831853 L11.9620399,13.6872949 C11.9620399,14.1929798 11.5752434,14.6197606 10.9952533,14.6197606 C10.4398217,14.6197606 10.0270341,14.2572949 10.0270341,13.6872949 L10.0270341,6.19797982 Z" id="Fill-5"></path>
                <path d="M17.9114203,6.24986338 C17.9114203,5.60239763 18.3250265,5.23952091 18.8796395,5.23952091 C19.4342525,5.23952091 19.847654,5.60239763 19.847654,6.24986338 L19.847654,13.6097264 C19.847654,14.2573976 19.4342525,14.6198634 18.8796395,14.6198634 C18.3250265,14.6198634 17.9114203,14.2573976 17.9114203,13.6097264 L17.9114203,6.24986338 Z" id="Fill-7"></path>
                <path d="M7.89715632,-8.8817842e-16 C6.65654236,-8.8817842e-16 5.65087146,1.01013698 5.65087146,2.25678082 C5.65087146,3.50157534 6.65654236,4.51212328 7.89715632,4.51212328 C9.13777028,4.51212328 10.1446691,3.50157534 10.1446691,2.25678082 C10.1446691,1.01013698 9.13777028,-8.8817842e-16 7.89715632,-8.8817842e-16 M7.89715632,4.1219178 C6.94674206,4.1219178 6.1774468,3.34828767 6.1774468,2.39465753 C6.1774468,2.23047945 6.20118669,2.07267123 6.24416408,1.92164383 L9.55137649,1.92164383 C9.59435388,2.07267123 9.61870773,2.23047945 9.61870773,2.39465753 C9.61870773,3.34828767 8.84900316,4.1219178 7.89715632,4.1219178" id="Fill-15"></path>
                <path d="M18.8797215,-8.8817842e-16 C17.6391075,-8.8817842e-16 16.6324134,1.01013698 16.6324134,2.25678082 C16.6324134,3.50157534 17.6391075,4.51212328 18.8797215,4.51212328 C20.1209494,4.51212328 21.126825,3.50157534 21.126825,2.25678082 C21.126825,1.01013698 20.1209494,-8.8817842e-16 18.8797215,-8.8817842e-16 M18.8797215,4.1219178 C17.9295119,4.1219178 17.159398,3.34828767 17.159398,2.39465753 C17.159398,2.23047945 17.1831379,2.07267123 17.2255013,1.92164383 L20.5325091,1.92164383 C20.5765098,2.07267123 20.600659,2.23047945 20.600659,2.39465753 C20.600659,3.34828767 19.8309544,4.1219178 18.8797215,4.1219178" id="Fill-18"></path>
            </g>
        </g>
    </g>
</svg>