<?xml version="1.0" encoding="UTF-8"?>
<svg width="40px" height="40px" viewBox="0 0 40 40" version="1.1" xmlns="http://www.w3.org/2000/svg" xmlns:xlink="http://www.w3.org/1999/xlink">
    <!-- Generator: Sketch 55.2 (78181) - https://sketchapp.com -->
    <title>Artboard</title>
    <desc>Created with Sketch.</desc>
    <g id="Artboard" stroke="none" stroke-width="1" fill="none" fill-rule="evenodd">
        <g id="Group" transform="translate(6.000000, 5.000000)">
            <polygon id="Path-2" fill="#F9B621" points="12.376598 1.77635684e-15 -3.55271368e-15 7.05553557 7.47549716 11.3714278 21.3482333 4.20795641 15.4643555 0.881990132 8.18181818 7.69351357 6.09042081 6.50737562"></polygon>
            <polygon id="Path-4" fill="#37B34A" points="0 7.92865954 0 11.0391396 9.25448331 16.3345498 26.9748313 9.91236637 26.9748313 6.97381271 22.8747337 4.34210526 9.25448331 14.1461503"></polygon>
            <polygon id="Path-5" fill="#EC2B8B" points="-7.10542736e-15 13.2479698 -7.10542736e-15 17.7003238 13.9090909 24.7974918 26.9748313 15.2000668 26.9748313 11.4473684 13.2954545 20.5259303"></polygon>
            <polygon id="Path-6" fill="#632466" points="7.10542736e-15 19.8228053 7.10542736e-15 21.9784385 13.9090909 29.921361 26.9748313 21.9784385 26.9748313 18.1578947 12.5635653 27.1659128"></polygon>
        </g>
    </g>
</svg>